<?xml version="1.0" encoding="UTF-8" standalone="no"?>
<svg
   xmlns:dc="http://purl.org/dc/elements/1.1/"
   xmlns:cc="http://creativecommons.org/ns#"
   xmlns:rdf="http://www.w3.org/1999/02/22-rdf-syntax-ns#"
   xmlns:svg="http://www.w3.org/2000/svg"
   xmlns="http://www.w3.org/2000/svg"
   xmlns:sodipodi="http://sodipodi.sourceforge.net/DTD/sodipodi-0.dtd"
   xmlns:inkscape="http://www.inkscape.org/namespaces/inkscape"
   id="svg8"
   version="1.1"
   viewBox="0 0 134.04929 134.04928"
   height="134.04929mm"
   width="134.04929mm"
   sodipodi:docname="favicon.svg"
   inkscape:version="0.92.2 2405546, 2018-03-11"
   inkscape:export-filename="/home/daniel/Projects/terrible.services/favicon.png"
   inkscape:export-xdpi="53"
   inkscape:export-ydpi="53">
  <sodipodi:namedview
     pagecolor="#ffffff"
     bordercolor="#666666"
     borderopacity="1"
     objecttolerance="10"
     gridtolerance="10"
     guidetolerance="10"
     inkscape:pageopacity="0"
     inkscape:pageshadow="2"
     inkscape:window-width="3436"
     inkscape:window-height="1400"
     id="namedview75"
     showgrid="false"
     inkscape:zoom="1.3086137"
     inkscape:cx="413.21961"
     inkscape:cy="77.945026"
     inkscape:window-x="0"
     inkscape:window-y="18"
     inkscape:window-maximized="0"
     inkscape:current-layer="layer1"
     fit-margin-top="0"
     fit-margin-left="0"
     fit-margin-right="0"
     fit-margin-bottom="0" />
  <defs
     id="defs2" />
  <metadata
     id="metadata5">
    <rdf:RDF>
      <cc:Work
         rdf:about="">
        <dc:format>image/svg+xml</dc:format>
        <dc:type
           rdf:resource="http://purl.org/dc/dcmitype/StillImage" />
        <dc:title></dc:title>
      </cc:Work>
    </rdf:RDF>
  </metadata>
  <g
     transform="translate(-639.89021,-28.888535)"
     id="layer1"
     style="fill:#ff0000">
    <circle
       style="fill:#00ffcc;stroke-width:0.2918781"
       id="path3794"
       cx="706.91486"
       cy="95.913177"
       r="67.024643" />
    <g
       id="g3798"
       transform="translate(-2.141914,0.02034599)">
      <path
         id="path4106"
         style="font-style:normal;font-variant:normal;font-weight:bold;font-stretch:normal;font-size:105.83333588px;line-height:1;font-family:'Poplar Std';-inkscape-font-specification:'Poplar Std Bold';text-align:center;letter-spacing:3.0480001px;word-spacing:0px;text-anchor:middle;fill:#ff00cc;fill-opacity:1;stroke:none;stroke-width:0.26458332"
         d="m 694.13273,135.84492 c 0.84667,0 1.48167,-0.635 1.48167,-1.37583 V 79.329916 c 0,-0.9525 0.52916,-1.481667 1.27,-1.481667 h 10.58333 c 0.84667,0 1.48167,-0.635 1.48167,-1.481667 V 57.739915 c 0,-0.846667 -0.635,-1.27 -1.37584,-1.27 H 662.2769 c -0.635,0 -0.9525,0.423333 -0.9525,1.058334 v 18.838333 c 0,0.635 0.74083,1.481667 1.37583,1.481667 h 10.58333 c 0.74084,0 1.37584,0.529167 1.37584,1.27 v 55.245011 c 0,0.84666 0.74083,1.48166 1.48166,1.48166 z"
         inkscape:connector-curvature="0" />
      <path
         id="path4122"
         style="font-style:normal;font-variant:normal;font-weight:bold;font-stretch:normal;font-size:105.83333588px;line-height:1;font-family:'Poplar Std';-inkscape-font-specification:'Poplar Std Bold';text-align:center;letter-spacing:3.0480001px;word-spacing:0px;text-anchor:middle;fill:#ff00cc;fill-opacity:1;stroke:none;stroke-width:0.26458332"
         d="m 755.51914,81.023243 c 0.84667,0 1.27,-0.635 1.27,-1.37583 0,-12.59417 -8.78416,-23.70667 -22.96583,-23.70667 -14.18167,0 -22.225,11.7475 -22.225,22.5425 0,7.19667 3.4925,15.13417 10.58333,20.84917 7.09084,5.715007 13.0175,10.371667 13.0175,12.911667 0,2.43417 -0.9525,3.38667 -2.43416,3.38667 -2.54,0 -4.33917,-4.55083 -4.7625,-8.78417 -0.10584,-0.9525 -0.52917,-1.37583 -1.27,-1.37583 l -14.605,0.74083 c -0.84667,0 -1.27,0.52917 -1.27,1.05834 0,16.93333 7.40833,28.575 23.495,28.575 13.86416,0 22.33083,-11.32417 22.33083,-25.50584 0,-7.83167 -5.18583,-15.451667 -12.065,-20.108337 -6.35,-4.33917 -11.32417,-8.14917 -11.32417,-11.53583 0,-1.05834 0.52917,-1.905 1.5875,-1.905 1.48167,0 2.54,1.27 3.175,3.81 0.21167,0.84666 0.635,1.16416 1.27,1.16416 z"
         inkscape:connector-curvature="0" />
    </g>
    <flowRoot
       transform="scale(0.26458333)"
       style="font-style:normal;font-weight:normal;font-size:40px;line-height:1.25;font-family:sans-serif;letter-spacing:0px;word-spacing:0px;fill:#ff0000;fill-opacity:1;stroke:none"
       id="flowRoot4051"
       xml:space="preserve"><flowRegion
         id="flowRegion4053"
         style="fill:#ff0000"><rect
           y="-1057.4803"
           x="-425.71429"
           height="588.57141"
           width="1520"
           id="rect4055"
           style="fill:#ff0000" /></flowRegion><flowPara
         id="flowPara4057" /></flowRoot>  </g>
</svg>
