<?xml version="1.0" encoding="UTF-8" standalone="no"?>
<svg
   xmlns:dc="http://purl.org/dc/elements/1.1/"
   xmlns:cc="http://creativecommons.org/ns#"
   xmlns:rdf="http://www.w3.org/1999/02/22-rdf-syntax-ns#"
   xmlns:svg="http://www.w3.org/2000/svg"
   xmlns="http://www.w3.org/2000/svg"
   id="svg8"
   version="1.1"
   viewBox="0 0 380.61301 240.6013"
   height="240.6013mm"
   width="380.61301mm">
  <defs
     id="defs2" />
  <metadata
     id="metadata5">
    <rdf:RDF>
      <cc:Work
         rdf:about="">
        <dc:format>image/svg+xml</dc:format>
        <dc:type
           rdf:resource="http://purl.org/dc/dcmitype/StillImage" />
        <dc:title></dc:title>
      </cc:Work>
    </rdf:RDF>
  </metadata>
  <g
     transform="translate(-594.80274,2.2481017)"
     id="layer1">
    <g
       id="text3715"
       style="font-style:normal;font-weight:normal;font-size:10.58333302px;line-height:1.25;font-family:sans-serif;letter-spacing:0px;word-spacing:0px;fill:#ffffff;fill-opacity:1;stroke:none;stroke-width:0.26458332"
       aria-label="TERRIBLE
SERVICES">
      <path
         id="path4106"
         style="font-style:normal;font-variant:normal;font-weight:bold;font-stretch:normal;font-size:105.83333588px;line-height:1;font-family:'Poplar Std';-inkscape-font-specification:'Poplar Std Bold';text-align:center;letter-spacing:3.0480001px;text-anchor:middle;fill:#ffffff;stroke-width:0.26458332"
         d="m 627.61355,132.20236 c 0.84667,0 1.48167,-0.635 1.48167,-1.37583 V 75.687361 c 0,-0.9525 0.52916,-1.481667 1.27,-1.481667 h 10.58333 c 0.84667,0 1.48167,-0.635 1.48167,-1.481667 V 54.09736 c 0,-0.846667 -0.635,-1.27 -1.37584,-1.27 h -45.29666 c -0.635,0 -0.9525,0.423333 -0.9525,1.058334 v 18.838333 c 0,0.635 0.74083,1.481667 1.37583,1.481667 h 10.58333 c 0.74084,0 1.37584,0.529167 1.37584,1.27 V 130.7207 c 0,0.84666 0.74083,1.48166 1.48166,1.48166 z" />
      <path
         id="path4108"
         style="font-style:normal;font-variant:normal;font-weight:bold;font-stretch:normal;font-size:105.83333588px;line-height:1;font-family:'Poplar Std';-inkscape-font-specification:'Poplar Std Bold';text-align:center;letter-spacing:3.0480001px;text-anchor:middle;fill:#ffffff;stroke-width:0.26458332"
         d="m 649.23199,130.82653 c 0,0.74083 0.52917,1.37583 1.16417,1.37583 h 37.88833 c 0.635,0 1.16417,-0.52916 1.16417,-1.16416 v -19.68501 c 0,-0.52916 -0.42333,-1.05833 -1.16417,-1.05833 h -18.30916 c -0.3175,0 -0.635,-0.3175 -0.635,-0.74083 v -6.24417 c 0,-0.52917 0.3175,-0.84667 0.74083,-0.84667 h 8.5725 c 0.42333,0 0.84667,-0.42333 0.84667,-0.9525 V 82.249028 c 0,-0.423334 -0.3175,-0.740834 -0.74084,-0.740834 h -8.36083 c -0.3175,0 -0.74083,-0.3175 -0.74083,-0.740833 v -5.926667 c 0,-0.423333 0.3175,-0.740833 0.74083,-0.740833 h 17.67417 c 0.635,0 1.16416,-0.423334 1.16416,-1.058334 v -19.05 c 0,-0.635 -0.42333,-1.164167 -1.05833,-1.164167 h -37.57083 c -0.74084,0 -1.37584,0.740834 -1.37584,1.375834 z" />
      <path
         id="path4110"
         style="font-style:normal;font-variant:normal;font-weight:bold;font-stretch:normal;font-size:105.83333588px;line-height:1;font-family:'Poplar Std';-inkscape-font-specification:'Poplar Std Bold';text-align:center;letter-spacing:3.0480001px;text-anchor:middle;fill:#ffffff;stroke-width:0.26458332"
         d="m 697.88589,52.82736 c -0.635,0 -1.16416,0.529167 -1.16416,1.27 v 76.72917 c 0,0.84667 0.52916,1.37583 1.27,1.37583 h 18.0975 c 0.74083,0 1.27,-0.635 1.27,-1.27 V 97.065695 c 0,-0.740834 0.10583,-1.27 0.74083,-1.27 1.16417,0 2.64584,1.693333 2.64584,5.079995 v 16.29834 c 0,9.94833 5.08,15.24 12.7,15.24 3.4925,0 14.07583,-0.84667 14.07583,-15.24 0,-0.42333 -0.42333,-1.16417 -0.9525,-1.48167 -2.32833,-0.9525 -2.8575,-2.2225 -2.8575,-3.4925 0,-10.795 0,-17.674166 -12.91167,-21.378332 v -0.211667 c 10.05417,-1.481667 11.1125,-11.959167 11.1125,-17.674167 0,-12.911667 -11.1125,-20.108334 -20.42583,-20.108334 z m 19.47334,23.177501 c 0,-0.635 0.3175,-0.9525 0.84667,-0.9525 0.9525,0 2.43416,1.375833 2.43416,3.81 0,4.868333 0,7.831667 -2.54,7.831667 -0.52916,0 -0.74083,-0.211667 -0.74083,-0.9525 z" />
      <path
         id="path4112"
         style="font-style:normal;font-variant:normal;font-weight:bold;font-stretch:normal;font-size:105.83333588px;line-height:1;font-family:'Poplar Std';-inkscape-font-specification:'Poplar Std Bold';text-align:center;letter-spacing:3.0480001px;text-anchor:middle;fill:#ffffff;stroke-width:0.26458332"
         d="m 754.47067,52.82736 c -0.635,0 -1.16416,0.529167 -1.16416,1.27 v 76.72917 c 0,0.84667 0.52916,1.37583 1.27,1.37583 h 18.0975 c 0.74083,0 1.27,-0.635 1.27,-1.27 V 97.065695 c 0,-0.740834 0.10583,-1.27 0.74083,-1.27 1.16417,0 2.64583,1.693333 2.64583,5.079995 v 16.29834 c 0,9.94833 5.08,15.24 12.7,15.24 3.4925,0 14.07584,-0.84667 14.07584,-15.24 0,-0.42333 -0.42334,-1.16417 -0.9525,-1.48167 -2.32834,-0.9525 -2.8575,-2.2225 -2.8575,-3.4925 0,-10.795 0,-17.674166 -12.91167,-21.378332 v -0.211667 c 10.05417,-1.481667 11.1125,-11.959167 11.1125,-17.674167 0,-12.911667 -11.1125,-20.108334 -20.42583,-20.108334 z m 19.47334,23.177501 c 0,-0.635 0.3175,-0.9525 0.84666,-0.9525 0.9525,0 2.43417,1.375833 2.43417,3.81 0,4.868333 0,7.831667 -2.54,7.831667 -0.52917,0 -0.74083,-0.211667 -0.74083,-0.9525 z" />
      <path
         id="path4114"
         style="font-style:normal;font-variant:normal;font-weight:bold;font-stretch:normal;font-size:105.83333588px;line-height:1;font-family:'Poplar Std';-inkscape-font-specification:'Poplar Std Bold';text-align:center;letter-spacing:3.0480001px;text-anchor:middle;fill:#ffffff;stroke-width:0.26458332"
         d="m 828.9413,132.20236 c 0.74083,0 1.27,-0.74083 1.27,-1.37583 V 53.885694 c 0,-0.635001 -0.52917,-1.058334 -1.27,-1.058334 h -18.0975 c -0.52917,0 -0.9525,0.529167 -0.9525,1.058334 v 76.729166 c 0,0.84667 0.635,1.5875 1.37583,1.5875 z" />
      <path
         id="path4116"
         style="font-style:normal;font-variant:normal;font-weight:bold;font-stretch:normal;font-size:105.83333588px;line-height:1;font-family:'Poplar Std';-inkscape-font-specification:'Poplar Std Bold';text-align:center;letter-spacing:3.0480001px;text-anchor:middle;fill:#ffffff;stroke-width:0.26458332"
         d="m 837.53728,131.0382 c 0,0.635 0.3175,1.16416 1.05833,1.16416 h 19.685 c 21.9075,0 22.01334,-17.56833 22.01334,-22.96583 0,-8.255 -4.445,-15.345836 -11.1125,-17.780002 v -0.211667 c 10.68916,-3.280833 10.795,-13.0175 10.795,-19.3675 0,-8.784167 -7.83167,-19.050001 -21.59,-19.050001 h -19.685 c -0.74084,0 -1.16417,0.529167 -1.16417,1.27 z m 18.94417,-61.912506 c 0,-0.423333 0.3175,-0.635 0.74083,-0.635 1.27,0 3.06917,0.846667 3.06917,2.751667 v 9.101666 c 0,2.116667 -1.5875,3.069167 -3.06917,3.069167 -0.42333,0 -0.74083,-0.3175 -0.74083,-0.740833 z m 0,31.009166 c 0,-0.529165 0.21166,-0.846665 0.635,-0.846665 1.69333,0 3.28083,1.058335 3.28083,2.857495 v 11.1125 c 0,1.79917 -1.48167,3.06917 -3.175,3.06917 -0.52917,0 -0.74083,-0.3175 -0.74083,-0.74083 z" />
      <path
         id="path4118"
         style="font-style:normal;font-variant:normal;font-weight:bold;font-stretch:normal;font-size:105.83333588px;line-height:1;font-family:'Poplar Std';-inkscape-font-specification:'Poplar Std Bold';text-align:center;letter-spacing:3.0480001px;text-anchor:middle;fill:#ffffff;stroke-width:0.26458332"
         d="m 907.84236,110.29486 c -0.3175,0 -0.635,-0.3175 -0.635,-0.74083 V 53.991527 c 0,-0.635 -0.42333,-1.164167 -1.05833,-1.164167 H 888.2632 c -0.74084,0 -1.37584,0.846667 -1.37584,1.481667 v 76.517503 c 0,0.74083 0.52917,1.37583 1.16417,1.37583 h 37.88833 c 0.635,0 1.16417,-0.52916 1.16417,-1.16416 v -19.68501 c 0,-0.52916 -0.42333,-1.05833 -1.16417,-1.05833 z" />
      <path
         id="path4120"
         style="font-style:normal;font-variant:normal;font-weight:bold;font-stretch:normal;font-size:105.83333588px;line-height:1;font-family:'Poplar Std';-inkscape-font-specification:'Poplar Std Bold';text-align:center;letter-spacing:3.0480001px;text-anchor:middle;fill:#ffffff;stroke-width:0.26458332"
         d="m 933.96369,130.82653 c 0,0.74083 0.52916,1.37583 1.16416,1.37583 h 37.88834 c 0.635,0 1.16416,-0.52916 1.16416,-1.16416 v -19.68501 c 0,-0.52916 -0.42333,-1.05833 -1.16416,-1.05833 h -18.30917 c -0.3175,0 -0.635,-0.3175 -0.635,-0.74083 v -6.24417 c 0,-0.52917 0.3175,-0.84667 0.74083,-0.84667 h 8.5725 c 0.42334,0 0.84667,-0.42333 0.84667,-0.9525 V 82.249028 c 0,-0.423334 -0.3175,-0.740834 -0.74083,-0.740834 h -8.36084 c -0.3175,0 -0.74083,-0.3175 -0.74083,-0.740833 v -5.926667 c 0,-0.423333 0.3175,-0.740833 0.74083,-0.740833 h 17.67417 c 0.635,0 1.16417,-0.423334 1.16417,-1.058334 v -19.05 c 0,-0.635 -0.42334,-1.164167 -1.05834,-1.164167 h -37.57083 c -0.74083,0 -1.37583,0.740834 -1.37583,1.375834 z" />
      <path
         id="path4122"
         style="font-style:normal;font-variant:normal;font-weight:bold;font-stretch:normal;font-size:105.83333588px;line-height:1;font-family:'Poplar Std';-inkscape-font-specification:'Poplar Std Bold';text-align:center;letter-spacing:3.0480001px;text-anchor:middle;fill:#ffffff;stroke-width:0.26458332"
         d="m 639.4644,183.53153 c 0.84667,0 1.27,-0.635 1.27,-1.37583 0,-12.59417 -8.78416,-23.70667 -22.96583,-23.70667 -14.18167,0 -22.225,11.7475 -22.225,22.5425 0,7.19667 3.4925,15.13417 10.58333,20.84917 7.09084,5.715 13.0175,10.37166 13.0175,12.91166 0,2.43417 -0.9525,3.38667 -2.43416,3.38667 -2.54,0 -4.33917,-4.55083 -4.7625,-8.78417 -0.10584,-0.9525 -0.52917,-1.37583 -1.27,-1.37583 l -14.605,0.74083 c -0.84667,0 -1.27,0.52917 -1.27,1.05834 0,16.93333 7.40833,28.575 23.495,28.575 13.86416,0 22.33083,-11.32417 22.33083,-25.50584 0,-7.83166 -5.18583,-15.45166 -12.065,-20.10833 -6.35,-4.33917 -11.32417,-8.14917 -11.32417,-11.53583 0,-1.05834 0.52917,-1.905 1.5875,-1.905 1.48167,0 2.54,1.27 3.175,3.81 0.21167,0.84666 0.635,1.16416 1.27,1.16416 z" />
      <path
         id="path4124"
         style="font-style:normal;font-variant:normal;font-weight:bold;font-stretch:normal;font-size:105.83333588px;line-height:1;font-family:'Poplar Std';-inkscape-font-specification:'Poplar Std Bold';text-align:center;letter-spacing:3.0480001px;text-anchor:middle;fill:#ffffff;stroke-width:0.26458332"
         d="m 647.47499,236.65986 c 0,0.74084 0.52917,1.37584 1.16417,1.37584 h 37.88834 c 0.635,0 1.16416,-0.52917 1.16416,-1.16417 v -19.685 c 0,-0.52917 -0.42333,-1.05833 -1.16416,-1.05833 h -18.30917 c -0.3175,0 -0.635,-0.3175 -0.635,-0.74084 v -6.24416 c 0,-0.52917 0.3175,-0.84667 0.74083,-0.84667 h 8.5725 c 0.42334,0 0.84667,-0.42333 0.84667,-0.9525 v -19.26167 c 0,-0.42333 -0.3175,-0.74083 -0.74083,-0.74083 h -8.36084 c -0.3175,0 -0.74083,-0.3175 -0.74083,-0.74083 v -5.92667 c 0,-0.42333 0.3175,-0.74083 0.74083,-0.74083 h 17.67417 c 0.635,0 1.16417,-0.42334 1.16417,-1.05834 v -19.05 c 0,-0.635 -0.42334,-1.16416 -1.05834,-1.16416 h -37.57083 c -0.74084,0 -1.37584,0.74083 -1.37584,1.37583 z" />
      <path
         id="path4126"
         style="font-style:normal;font-variant:normal;font-weight:bold;font-stretch:normal;font-size:105.83333588px;line-height:1;font-family:'Poplar Std';-inkscape-font-specification:'Poplar Std Bold';text-align:center;letter-spacing:3.0480001px;text-anchor:middle;fill:#ffffff;stroke-width:0.26458332"
         d="m 696.1289,158.6607 c -0.635,0 -1.16417,0.52916 -1.16417,1.27 v 76.72916 c 0,0.84667 0.52917,1.37584 1.27,1.37584 h 18.0975 c 0.74083,0 1.27,-0.635 1.27,-1.27 v -33.86667 c 0,-0.74083 0.10583,-1.27 0.74083,-1.27 1.16417,0 2.64584,1.69333 2.64584,5.08 v 16.29833 c 0,9.94834 5.08,15.24 12.7,15.24 3.4925,0 14.07583,-0.84666 14.07583,-15.24 0,-0.42333 -0.42333,-1.16416 -0.9525,-1.48166 -2.32833,-0.9525 -2.8575,-2.2225 -2.8575,-3.4925 0,-10.795 0,-17.67417 -12.91167,-21.37834 v -0.21166 c 10.05417,-1.48167 11.1125,-11.95917 11.1125,-17.67417 0,-12.91167 -11.1125,-20.10833 -20.42583,-20.10833 z m 19.47333,23.1775 c 0,-0.635 0.3175,-0.9525 0.84667,-0.9525 0.9525,0 2.43416,1.37583 2.43416,3.81 0,4.86833 0,7.83166 -2.54,7.83166 -0.52916,0 -0.74083,-0.21166 -0.74083,-0.9525 z" />
      <path
         id="path4128"
         style="font-style:normal;font-variant:normal;font-weight:bold;font-stretch:normal;font-size:105.83333588px;line-height:1;font-family:'Poplar Std';-inkscape-font-specification:'Poplar Std Bold';text-align:center;letter-spacing:3.0480001px;text-anchor:middle;fill:#ffffff;stroke-width:0.26458332"
         d="m 764.60009,159.71903 c -0.10583,-0.74083 -0.635,-1.05833 -1.27,-1.05833 h -18.94417 c -0.635,0 -0.84666,0.635 -0.74083,1.16416 l 14.2875,76.94084 c 0.10583,0.52916 0.635,1.27 1.27,1.27 h 20.6375 c 0.74083,0 1.27,-0.52917 1.37583,-1.27 l 14.71084,-76.72917 c 0.10583,-0.74083 -0.3175,-1.37583 -0.9525,-1.37583 h -18.20334 c -0.635,0 -1.05833,0.635 -1.27,1.37583 l -4.445,32.80833 c 0,0.52917 -0.3175,0.84667 -0.52916,0.84667 -0.10584,0 -0.42334,-0.3175 -0.52917,-0.84667 z" />
      <path
         id="path4130"
         style="font-style:normal;font-variant:normal;font-weight:bold;font-stretch:normal;font-size:105.83333588px;line-height:1;font-family:'Poplar Std';-inkscape-font-specification:'Poplar Std Bold';text-align:center;letter-spacing:3.0480001px;text-anchor:middle;fill:#ffffff;stroke-width:0.26458332"
         d="m 820.1563,238.0357 c 0.74083,0 1.27,-0.74084 1.27,-1.37584 v -76.94083 c 0,-0.635 -0.52917,-1.05833 -1.27,-1.05833 h -18.0975 c -0.52917,0 -0.9525,0.52916 -0.9525,1.05833 v 76.72917 c 0,0.84666 0.635,1.5875 1.37583,1.5875 z" />
      <path
         id="path4132"
         style="font-style:normal;font-variant:normal;font-weight:bold;font-stretch:normal;font-size:105.83333588px;line-height:1;font-family:'Poplar Std';-inkscape-font-specification:'Poplar Std Bold';text-align:center;letter-spacing:3.0480001px;text-anchor:middle;fill:#ffffff;stroke-width:0.26458332"
         d="m 828.11728,209.98986 c 0,15.13417 8.255,28.36334 22.96584,28.36334 13.335,0 23.8125,-8.78417 23.8125,-34.29 0,-0.42334 -0.3175,-0.84667 -0.84667,-0.84667 l -20.0025,-0.74083 c -0.84667,-0.10584 -1.27,0.84666 -1.27,1.48166 v 10.68917 c 0,1.05833 -0.635,1.905 -1.69333,1.905 -0.9525,0 -1.69334,-0.74083 -1.69334,-1.79917 V 181.8382 c 0,-1.16417 0.84667,-1.905 1.69334,-1.905 0.84666,0 1.69333,0.52916 1.69333,2.01083 v 6.6675 c 0,1.27 0.9525,2.11667 1.905,2.11667 l 19.57917,-0.74084 c 0.9525,0 0.9525,-0.3175 0.9525,-3.175 0,-15.24 -8.14917,-28.36333 -23.60084,-28.36333 -14.49917,0 -23.495,11.21833 -23.495,30.48 z" />
      <path
         id="path4134"
         style="font-style:normal;font-variant:normal;font-weight:bold;font-stretch:normal;font-size:105.83333588px;line-height:1;font-family:'Poplar Std';-inkscape-font-specification:'Poplar Std Bold';text-align:center;letter-spacing:3.0480001px;text-anchor:middle;fill:#ffffff;stroke-width:0.26458332"
         d="m 881.82308,236.65986 c 0,0.74084 0.52917,1.37584 1.16417,1.37584 h 37.88833 c 0.635,0 1.16417,-0.52917 1.16417,-1.16417 v -19.685 c 0,-0.52917 -0.42333,-1.05833 -1.16417,-1.05833 h -18.30916 c -0.3175,0 -0.635,-0.3175 -0.635,-0.74084 v -6.24416 c 0,-0.52917 0.3175,-0.84667 0.74083,-0.84667 h 8.5725 c 0.42333,0 0.84667,-0.42333 0.84667,-0.9525 v -19.26167 c 0,-0.42333 -0.3175,-0.74083 -0.74084,-0.74083 h -8.36083 c -0.3175,0 -0.74083,-0.3175 -0.74083,-0.74083 v -5.92667 c 0,-0.42333 0.3175,-0.74083 0.74083,-0.74083 h 17.67417 c 0.635,0 1.16416,-0.42334 1.16416,-1.05834 v -19.05 c 0,-0.635 -0.42333,-1.16416 -1.05833,-1.16416 h -37.57083 c -0.74084,0 -1.37584,0.74083 -1.37584,1.37583 z" />
      <path
         id="path4136"
         style="font-style:normal;font-variant:normal;font-weight:bold;font-stretch:normal;font-size:105.83333588px;line-height:1;font-family:'Poplar Std';-inkscape-font-specification:'Poplar Std Bold';text-align:center;letter-spacing:3.0480001px;text-anchor:middle;fill:#ffffff;stroke-width:0.26458332"
         d="m 973.33947,183.53153 c 0.84666,0 1.27,-0.635 1.27,-1.37583 0,-12.59417 -8.78417,-23.70667 -22.96584,-23.70667 -14.18167,0 -22.225,11.7475 -22.225,22.5425 0,7.19667 3.4925,15.13417 10.58333,20.84917 7.09084,5.715 13.01751,10.37166 13.01751,12.91166 0,2.43417 -0.95251,3.38667 -2.43417,3.38667 -2.54,0 -4.33917,-4.55083 -4.7625,-8.78417 -0.10584,-0.9525 -0.52917,-1.37583 -1.27,-1.37583 l -14.605,0.74083 c -0.84667,0 -1.27,0.52917 -1.27,1.05834 0,16.93333 7.40833,28.575 23.495,28.575 13.86417,0 22.33083,-11.32417 22.33083,-25.50584 0,-7.83166 -5.18583,-15.45166 -12.065,-20.10833 -6.35,-4.33917 -11.32417,-8.14917 -11.32417,-11.53583 0,-1.05834 0.52917,-1.905 1.58751,-1.905 1.48166,0 2.54,1.27 3.175,3.81 0.21166,0.84666 0.635,1.16416 1.27,1.16416 z" />
    </g>
    <flowRoot
       transform="scale(0.26458333)"
       style="font-style:normal;font-weight:normal;font-size:40px;line-height:1.25;font-family:sans-serif;letter-spacing:0px;word-spacing:0px;fill:#000000;fill-opacity:1;stroke:none"
       id="flowRoot4051"
       xml:space="preserve"><flowRegion
         id="flowRegion4053"><rect
           y="-1057.4803"
           x="-425.71429"
           height="588.57141"
           width="1520"
           id="rect4055" /></flowRegion><flowPara
         id="flowPara4057"></flowPara></flowRoot>    <g
       id="text4061"
       style="font-style:normal;font-weight:normal;font-size:23.03734589px;line-height:1.25;font-family:sans-serif;letter-spacing:0px;word-spacing:0px;fill:#ffffff;fill-opacity:1;stroke:none;stroke-width:0.57593364"
       aria-label="Unprofessional builds">
      <path
         id="path4065"
         style="font-style:normal;font-variant:normal;font-weight:900;font-stretch:normal;font-family:Klute;-inkscape-font-specification:'Klute Heavy';fill:#ffffff;stroke-width:0.57593364"
         d="m 612.84106,0.74675331 -6.58868,18.06127869 -3.87028,-4.837842 4.79177,-13.20039934 -4.51532,-3.01789236 -6.19704,17.0476357 5.66718,7.164615 4.14673,-2.787519 h 9.95213 l -3.11004,-3.755087 5.34466,-14.67478969 z" />
      <path
         id="path4067"
         style="font-style:normal;font-variant:normal;font-weight:900;font-stretch:normal;font-family:Klute;-inkscape-font-specification:'Klute Heavy';fill:#ffffff;stroke-width:0.57593364"
         d="m 632.4084,4.1562805 -5.39073,6.9572785 1.52046,-4.2158343 h -10.09036 l 3.11004,3.7550873 -3.11004,8.523818 h 10.09036 l -3.087,-3.755087 1.45135,-3.985461 h 5.57504 l -2.78752,7.648399 4.49228,2.994855 3.89331,-10.643254 z" />
      <path
         id="path4069"
         style="font-style:normal;font-variant:normal;font-weight:900;font-stretch:normal;font-family:Klute;-inkscape-font-specification:'Klute Heavy';fill:#ffffff;stroke-width:0.57593364"
         d="m 655.08111,3.787683 -4.72265,3.1100417 h -10.04429 l 3.11005,3.7781243 -5.02215,13.753296 4.51532,3.017892 4.51532,-12.394092 5.52897,7.095503 6.01274,-7.717511 z m -7.57928,11.080963 2.83359,-7.7866226 2.97182,7.7866226 z" />
      <path
         id="path4071"
         style="font-style:normal;font-variant:normal;font-weight:900;font-stretch:normal;font-family:Klute;-inkscape-font-specification:'Klute Heavy';fill:#ffffff;stroke-width:0.57593364"
         d="m 675.22043,4.1793178 -5.34466,6.8420922 1.49742,-4.1236853 h -10.09035 l 3.11004,3.7781243 -3.11004,8.500781 h 10.09035 l -3.087,-3.755087 1.42832,-3.985461 h 5.52896 l -0.7372,2.004249 4.53836,3.017892 1.81995,-5.022141 z" />
      <path
         id="path4073"
         style="font-style:normal;font-variant:normal;font-weight:900;font-stretch:normal;font-family:Klute;-inkscape-font-specification:'Klute Heavy';fill:#ffffff;stroke-width:0.57593364"
         d="m 695.70568,4.1793178 -5.57504,7.2106892 1.63565,-4.4922823 h -5.59808 l -3.01789,8.2012953 5.50593,7.072465 5.57504,-7.141577 -1.52047,4.146722 h 5.57504 l 2.9027,-7.947884 z m -1.42832,10.7123662 h -5.41378 l 1.24402,-3.455602 h 5.43681 z" />
      <path
         id="path4075"
         style="font-style:normal;font-variant:normal;font-weight:900;font-stretch:normal;font-family:Klute;-inkscape-font-specification:'Klute Heavy';fill:#ffffff;stroke-width:0.57593364"
         d="m 714.20034,-1.9716535 -9.42227,8.8693782 v 3.9854613 h 2.60322 l -2.97182,8.178257 4.53836,3.017893 4.10064,-11.19615 h 4.05458 V 6.8977247 h -5.39074 l 5.41377,-5.1142908 z" />
      <path
         id="path4077"
         style="font-style:normal;font-variant:normal;font-weight:900;font-stretch:normal;font-family:Klute;-inkscape-font-specification:'Klute Heavy';fill:#ffffff;stroke-width:0.57593364"
         d="m 732.00533,4.1793178 -5.57504,7.1646142 1.61262,-4.4462073 h -5.59808 l -3.47864,9.5144243 10.78148,5.713261 5.20644,-3.455602 -4.30798,-2.303734 7.00335,-4.929992 z m -6.42742,9.4913862 0.82935,-2.234622 h 4.07761 v 4.837842 z" />
      <path
         id="path4079"
         style="font-style:normal;font-variant:normal;font-weight:900;font-stretch:normal;font-family:Klute;-inkscape-font-specification:'Klute Heavy';fill:#ffffff;stroke-width:0.57593364"
         d="m 748.23802,4.6631021 -6.88817,5.3677019 7.21069,6.888166 -7.25676,-2.60322 -2.74145,4.008498 8.98457,3.271303 7.04942,-5.482888 -6.93424,-6.6347556 6.40439,2.3728466 2.76448,-4.1006475 z" />
      <path
         id="path4081"
         style="font-style:normal;font-variant:normal;font-weight:900;font-stretch:normal;font-family:Klute;-inkscape-font-specification:'Klute Heavy';fill:#ffffff;stroke-width:0.57593364"
         d="m 766.05596,4.6631021 -6.88816,5.3677019 7.21069,6.888166 -7.25677,-2.60322 -2.74144,4.008498 8.98456,3.271303 7.04943,-5.482888 -6.93424,-6.6347556 6.40438,2.3728466 2.76448,-4.1006475 z" />
      <path
         id="path4083"
         style="font-style:normal;font-variant:normal;font-weight:900;font-stretch:normal;font-family:Klute;-inkscape-font-specification:'Klute Heavy';fill:#ffffff;stroke-width:0.57593364"
         d="m 786.60491,0.74675331 h -6.77298 V 4.7552515 h 6.77298 z m -3.087,14.67478969 3.087,-8.5238183 h -10.09035 l 3.11004,3.7781243 -3.11004,8.500781 h 10.09035 z" />
      <path
         id="path4085"
         style="font-style:normal;font-variant:normal;font-weight:900;font-stretch:normal;font-family:Klute;-inkscape-font-specification:'Klute Heavy';fill:#ffffff;stroke-width:0.57593364"
         d="m 801.44349,4.1793178 -5.57504,7.2106892 1.63566,-4.4922823 h -5.59808 l -3.01789,8.2012953 5.50592,7.072465 5.57504,-7.141577 -1.52046,4.146722 h 5.57503 l 2.90271,-7.947884 z m -1.42831,10.7123662 h -5.41378 l 1.24402,-3.455602 h 5.43681 z" />
      <path
         id="path4087"
         style="font-style:normal;font-variant:normal;font-weight:900;font-stretch:normal;font-family:Klute;-inkscape-font-specification:'Klute Heavy';fill:#ffffff;stroke-width:0.57593364"
         d="m 823.18643,4.1562805 -5.39074,6.9572785 1.52047,-4.2158343 H 809.2258 l 3.11004,3.7550873 -3.11004,8.523818 h 10.09036 l -3.08701,-3.755087 1.45136,-3.985461 h 5.57503 l -2.78752,7.648399 4.49229,2.994855 3.89331,-10.643254 z" />
      <path
         id="path4089"
         style="font-style:normal;font-variant:normal;font-weight:900;font-stretch:normal;font-family:Klute;-inkscape-font-specification:'Klute Heavy';fill:#ffffff;stroke-width:0.57593364"
         d="m 846.87278,15.421543 3.11004,-8.5238183 h -5.62111 l -1.58958,4.3770953 -5.52896,-7.0955022 -5.64415,7.2567642 3.52472,10.896664 4.76873,-3.156116 h 10.09035 z m -6.98031,3.755087 -2.48804,-7.740548 h 5.29859 z" />
      <path
         id="path4091"
         style="font-style:normal;font-variant:normal;font-weight:900;font-stretch:normal;font-family:Klute;-inkscape-font-specification:'Klute Heavy';fill:#ffffff;stroke-width:0.57593364"
         d="M 859.63474,-2.2481017 851.82508,19.17663 h 10.1134 l -3.13308,-3.778125 5.34466,-14.62871434 z" />
      <path
         id="path4093"
         style="font-style:normal;font-variant:normal;font-weight:900;font-stretch:normal;font-family:Klute;-inkscape-font-specification:'Klute Heavy';fill:#ffffff;stroke-width:0.57593364"
         d="m 884.59859,4.1332432 -4.72266,3.1561163 2.37285,-6.54260619 h -10.1134 L 875.24542,4.5018407 869.9238,19.17663 h 5.62111 l 1.52046,-4.123685 5.50593,7.095503 5.98971,-7.717511 z m -7.48714,10.7354028 2.74144,-7.5101744 3.06397,7.5101744 z" />
      <path
         id="path4095"
         style="font-style:normal;font-variant:normal;font-weight:900;font-stretch:normal;font-family:Klute;-inkscape-font-specification:'Klute Heavy';fill:#ffffff;stroke-width:0.57593364"
         d="m 907.36415,15.421543 3.08701,-8.5238183 h -5.62112 l -2.81055,7.7405483 h -5.552 l 2.69537,-7.4641002 -4.51532,-2.994855 -3.80117,10.4589552 5.64415,7.256764 5.39074,-6.934241 -1.52046,4.215834 h 10.11339 z" />
      <path
         id="path4097"
         style="font-style:normal;font-variant:normal;font-weight:900;font-stretch:normal;font-family:Klute;-inkscape-font-specification:'Klute Heavy';fill:#ffffff;stroke-width:0.57593364"
         d="m 922.84921,0.74675331 h -6.77298 V 4.7552515 h 6.77298 z M 919.7622,15.421543 922.84921,6.8977247 h -10.09036 l 3.11004,3.7781243 -3.11004,8.500781 h 10.09036 z" />
      <path
         id="path4099"
         style="font-style:normal;font-variant:normal;font-weight:900;font-stretch:normal;font-family:Klute;-inkscape-font-specification:'Klute Heavy';fill:#ffffff;stroke-width:0.57593364"
         d="M 932.48136,-2.2481017 924.6717,19.17663 h 10.11339 l -3.13307,-3.778125 5.34466,-14.62871434 z" />
      <path
         id="path4101"
         style="font-style:normal;font-variant:normal;font-weight:900;font-stretch:normal;font-family:Klute;-inkscape-font-specification:'Klute Heavy';fill:#ffffff;stroke-width:0.57593364"
         d="m 947.99989,0.74675331 3.11004,3.77812469 -2.46499,6.749942 -5.52897,-7.0955022 -5.64415,7.2567642 3.52472,10.896664 4.76873,-3.156116 h 10.09036 l -3.11004,-3.755087 5.34466,-14.67478969 z M 945.76527,19.17663 943.27724,11.436082 h 5.29859 z" />
      <path
         id="path4103"
         style="font-style:normal;font-variant:normal;font-weight:900;font-stretch:normal;font-family:Klute;-inkscape-font-specification:'Klute Heavy';fill:#ffffff;stroke-width:0.57593364"
         d="m 966.82283,4.6631021 -6.88817,5.3677019 7.21069,6.888166 -7.25677,-2.60322 -2.74144,4.008498 8.98457,3.271303 7.04942,-5.482888 -6.93424,-6.6347556 6.40438,2.3728466 2.76449,-4.1006475 z" />
    </g>
  </g>
</svg>
